<?xml version="1.0" standalone="no"?><!DOCTYPE svg PUBLIC "-//W3C//DTD SVG 1.1//EN" "http://www.w3.org/Graphics/SVG/1.1/DTD/svg11.dtd"><svg t="1719542745503" class="icon" viewBox="0 0 1024 1024" version="1.1" xmlns="http://www.w3.org/2000/svg" p-id="7142" id="mx_n_1719542745504" xmlns:xlink="http://www.w3.org/1999/xlink" width="200" height="200"><path d="M967.899988 168.517687a32.80801 32.80801 0 0 0-28.707009 9.186243l-127.131039 127.131039-92.846668-92.846668 127.131039-127.131039A32.80801 32.80801 0 0 0 836.667948 31.872326a328.0801 328.0801 0 0 0-465.873743 342.351584l-37.729211 37.729212a32.80801 32.80801 0 0 0 46.423334 46.423334l49.212015-49.212015a32.80801 32.80801 0 0 0 9.022203-29.527209 262.46408 262.46408 0 0 1 325.619499-305.114493l-114.828035 114.828035a32.80801 32.80801 0 0 0 0 46.423334l139.270003 139.270002a33.79225 33.79225 0 0 0 46.423334 0l114.828035-114.828035a262.46408 262.46408 0 0 1-304.622373 324.96334 32.80801 32.80801 0 0 0-29.527209 9.022202L289.594381 918.672837A131.23204 131.23204 0 0 1 104.065084 733.7997l139.270003-139.270003A32.80801 32.80801 0 0 0 196.911752 548.270403L57.64175 687.376366a196.84806 196.84806 0 0 0 278.868085 278.868085l312.660336-313.644576a328.0801 328.0801 0 0 0 342.187544-465.873742A32.80801 32.80801 0 0 0 967.899988 168.517687z" fill="#211B13" p-id="7143"></path><path d="M150.488418 733.7997a98.42403 98.42403 0 1 0 139.105963 139.270003 98.42403 98.42403 0 0 0-139.270003-139.270003z m92.846669 92.846668a32.80801 32.80801 0 0 1-46.423335 0 32.80801 32.80801 0 1 1 46.423335 0z" fill="#FFB243" p-id="7144"></path></svg>